# Blender v2.78 (sub 0) OBJ File: ''
# www.blender.org
mtllib triangle.mtl
o Cube
v 1.000000 0.003296 -1.000000
v 1.000000 0.003296 1.000000
v -1.000000 0.003296 1.000000
v -1.000000 0.003296 -1.000000
v -0.000000 1.000000 0.000000
vt 0.0001 0.9999
vt 0.9999 0.0001
vt 0.9999 0.9999
vt 0.0001 0.0001
vt 0.5000 0.5000
vt 0.9999 0.9999
vt 0.0001 0.0001
vn 0.0000 -1.0000 0.0000
vn 0.7059 0.7083 0.0000
vn -0.0000 0.7083 0.7059
vn -0.7059 0.7083 -0.0000
vn 0.0000 0.7083 -0.7059
usemtl Material
s off
f 2/1/1 4/2/1 1/3/1
f 1/4/2 5/5/2 2/1/2
f 2/1/3 5/5/3 3/6/3
f 3/6/4 5/5/4 4/2/4
f 5/5/5 1/4/5 4/2/5
f 2/1/1 3/7/1 4/2/1
